<svg id="Capa_1" data-name="Capa 1" xmlns="http://www.w3.org/2000/svg" viewBox="0 0 500 500"><defs><style>.cls-1{fill:#fff;}</style></defs><path class="cls-1" d="M222.62,408.65c-27.58,0-51.87-17.16-72.28-51.11-32.94-54.8-38.79-142.72-13.92-209.06,19.58-52.19,40.65-59.58,55-56.55,30.9,6.53,50.78,66.48,47.91,115.72h0a500.38,500.38,0,0,1-9.78,73.5l60.33-98.84c7.46-12.2,15.9-26,29.39-34.66,13.34-8.52,34.3-10.67,46.9,2.14,17.52,17.79,17,58.53-1.29,109C339.3,329,284.52,403,229.22,408.33,227,408.55,224.8,408.65,222.62,408.65ZM186,102.28c-13.3,0-27.15,17.54-39.33,50-23.81,63.48-18.32,147.42,13,199.6,19.67,32.72,42.72,48,68.47,45.55,50.26-4.86,102.64-77,126.41-142.43,16.59-45.69,18-83.08,3.77-97.58-8.26-8.39-23.39-6.9-33.24-.6-11.36,7.27-19.11,20-25.95,31.15L220.39,317a5.46,5.46,0,0,1-9.91-4.33A490.37,490.37,0,0,0,228.4,207c2.78-47.91-16.67-99.63-39.28-104.41A15.16,15.16,0,0,0,186,102.28Z"/></svg>