<svg id="Capa_1" data-name="Capa 1" xmlns="http://www.w3.org/2000/svg" viewBox="0 0 500 500"><defs><style>.cls-1{fill:#6667ab;}</style></defs><path class="cls-1" d="M253.1,388l-1.49-4.17c13.92-5,28-13.51,43.05-26.07,13.45-11.22,22.78-21.55,29.35-32.49,16.84-28,17-65.27.38-94.86C310.7,206,286,187.53,257.88,180.08a62.87,62.87,0,0,1,1.73,6.91c4,20.66-6.82,46.84-28.62,51.36a32.46,32.46,0,0,1-29.78-54.49c9.28-9.48,24.76-13.33,43.59-10.86,2,.26,4,.58,6,1-6.33-14.07-17.21-26.06-27.39-36.54-13.24-13.63-38.77-34.9-61-24.13a1.86,1.86,0,0,0-.19,1.08,1.76,1.76,0,0,0-2.74-.61l3.49,2.71a2.81,2.81,0,0,1-3.1,1.18,3.07,3.07,0,0,1-2.07-3c-.15-1.88.62-4.35,2.68-5.34,23.45-11.38,48.87,7.33,66.07,25,11.15,11.49,23.13,24.76,29.49,40.74,30.42,7.22,57.41,26.88,72.15,53.15,17.37,31,17.2,69.94-.45,99.3-6.83,11.39-16.46,22.07-30.3,33.62C282,374.05,267.52,382.82,253.1,388Zm-19-211.29c-9.79,0-21.68,2-29.73,10.26-8.28,8.46-10.24,22.67-4.56,33s18.69,16.4,30.28,14c19.29-4,28.75-27.56,25.18-46.2a60.17,60.17,0,0,0-2.46-9c-2.84-.6-5.7-1.1-8.59-1.48A78.42,78.42,0,0,0,234.1,176.7Z"/><path class="cls-1" d="M259.51,396.5a12.24,12.24,0,0,1-3.44-.46c-3.86-1.14-5.12-7.26-4.74-10.38a119.86,119.86,0,0,1,8.39-31.76l-.6-.43,2.14-3,3.81,2.19a115.85,115.85,0,0,0-9.35,33.54c-.26,2.18.86,5.31,1.6,5.59a12.75,12.75,0,0,0,6.23-.25,58.72,58.72,0,0,0,23.12-10.86l2.71,3.5a63.17,63.17,0,0,1-24.87,11.67A22.87,22.87,0,0,1,259.51,396.5Z"/></svg>