<svg id="Capa_1" data-name="Capa 1" xmlns="http://www.w3.org/2000/svg" viewBox="0 0 500 500"><defs><style>.cls-1{fill:none;stroke:#edab35;stroke-miterlimit:10;stroke-width:3px;}.cls-10,.cls-2{fill:#fff;}.cls-3{fill:#edab35;}.cls-4{font-size:52.93px;fill:#6667ab;font-family:Raleway-Black, Raleway;font-weight:800;letter-spacing:0.13em;}.cls-5{letter-spacing:0.2em;}.cls-6{letter-spacing:0.17em;}.cls-7{letter-spacing:0.14em;}.cls-8{letter-spacing:0.2em;}.cls-9{letter-spacing:0.17em;}.cls-10{font-size:30.25px;font-family:Raleway-SemiBold, Raleway;font-weight:600;letter-spacing:0.2em;}.cls-11{letter-spacing:0.17em;}.cls-12{letter-spacing:0.2em;}.cls-13{letter-spacing:0.19em;}.cls-14{letter-spacing:0.17em;}</style></defs><polyline class="cls-1" points="441.62 244.86 463.89 244.86 463.89 155.62 32.02 155.62 32.02 244.86 361.12 244.86"/><path class="cls-2" d="M114.44,270.16c-1.17,0-1.75-1.17-1.75-3.51q0-7.59,25.7-66.58l2.33-6.63-8,1.56a90.32,90.32,0,0,0-20.64,5.84,4.85,4.85,0,0,1-2.14.59,1.68,1.68,0,0,1-1.36-.78,2.6,2.6,0,0,1-.59-1.56q0-2.72,30.18-8.57a8.5,8.5,0,0,0,7-5.45,484.24,484.24,0,0,1,27.26-56.66q2.14-3.5,4.09-3.5c1.29,0,1.95.71,1.95,2.14s-1.43,4.67-4.29,10.13L173,138.93q-11.88,21.62-21.8,44.2a10.56,10.56,0,0,0-1.37,3.89q0,.78,1.56.78l11.49-1.56a191.07,191.07,0,0,1,38.55-3.5,6.18,6.18,0,0,0,3.21-.59,5.39,5.39,0,0,0,1.66-2.14q16.93-40.5,32.32-60.75c2.46-3.5,4.48-5.25,6-5.25,1.3,0,1.95.71,1.95,2.14a6.6,6.6,0,0,1-1.56,3.11,1.28,1.28,0,0,0-.58.59Q228.74,141.27,211,180.59a4.58,4.58,0,0,0-.58,1.95q0,1,3.5,3.7c-.26.65-.58,1-1,1l-2.53-.19c-1.43,0-2.67,1-3.7,2.92q-12.47,26.87-24.15,59.77a28.81,28.81,0,0,0-2.14,10.91,1,1,0,0,1-1.17,1.16c-1.43,0-2.14-1.55-2.14-4.67q0-6,5.45-19.86,13.24-34.84,18.5-45.56a31.32,31.32,0,0,0,1.95-4.87,43.43,43.43,0,0,0-8-.77,44.43,44.43,0,0,0-5.65.38q-18.89,1.57-37.19,4.87a6.86,6.86,0,0,0-5.84,4.48q-10.91,23.37-25.7,61.33Q117.16,270.16,114.44,270.16Z"/><path class="cls-2" d="M211.21,233.16a6.87,6.87,0,0,1-2.73-.58,5.85,5.85,0,0,1-3.12-5.45,22.66,22.66,0,0,1,2.92-10.71q9.93-21.22,19.47-21.22a10.64,10.64,0,0,1,2.93.39,8,8,0,0,1,4.86,7.78l-.19,1.76a59.86,59.86,0,0,0,6.62.39q15.77,0,26.67-7.6a4.49,4.49,0,0,1,1.75-.58.69.69,0,0,1,.78.78,4.49,4.49,0,0,1-.39,1.56q-10.32,9.15-31.73,9.15h-3.9q-.59,0-2.53,3.89Q226.2,225,216.07,231.41A10.06,10.06,0,0,1,211.21,233.16Zm1.36-4.09q5.06,0,15.57-15.57a37.1,37.1,0,0,0,2.34-5.06q-6-2.34-6.62-7.21Q214.52,211.55,211.4,223a13.66,13.66,0,0,0-.78,4.28C210.62,228.49,211.27,229.07,212.57,229.07Zm18.3-24.92A1,1,0,0,0,232,203c0-2.86-1.11-4.29-3.31-4.29-1.17,0-1.75.46-1.75,1.37v.19C228.14,202.86,229.44,204.15,230.87,204.15Z"/><path class="cls-2" d="M334.06,132.7q-8.37.39-20.25,10.9a241,241,0,0,0-53.35,67.17,71.18,71.18,0,0,0-8.95,23.76,25.17,25.17,0,0,0-.39,4.09q0,7.2,5.64,7.2,5.46,0,14.22-6.82l49.84-38.93c1.17-1.17,1.75-2,1.75-2.54s-.26-.65-.78-.78q-1.76,0-54.32,40.7-5.84,4.08-8.76,4.09c-1.69,0-2.53-1.37-2.53-4.09a27.85,27.85,0,0,1,1.17-7,109.64,109.64,0,0,1,9.34-21.61q3.51-7.2,6.23-9.35,7.79-2.92,22.59-12.66A142.24,142.24,0,0,0,323,163.07c1.92-2.13,3.62-4.15,5.19-6.12a25.92,25.92,0,0,1-4.23-.08s0,0-.05-.05c-1.39,1.65-2.88,3.33-4.51,5.08A149.49,149.49,0,0,1,295.31,183q-12.45,8.67-19.86,11.19a191.92,191.92,0,0,1,17.92-23.56,179.8,179.8,0,0,1,26.48-27.06q7-6,13.43-7.59h.59a2.9,2.9,0,0,1,1.07.19q.48.2.48,2a9.48,9.48,0,0,1-.58,2.34,63.65,63.65,0,0,1-8.9,13.79c.42.08.9,0,1.32.08l0,0a14,14,0,0,1,2.89,0c5.15-6.86,8.11-12.73,8.76-17.54C338.93,134.19,337.3,132.83,334.06,132.7Z"/><path class="cls-2" d="M329.87,218.07q1.65-3.8,3.6-7.3l4.68-8.37a.35.35,0,0,0-.39-.39q-1,.39-16.94,10.32c-5.07,3.12-8.5,4.67-10.32,4.67q-3.12,0-3.12-3.31a10.49,10.49,0,0,1,2.15-5.84,53.26,53.26,0,0,1,19.27-16.74,16.35,16.35,0,0,1,8.76-2.53q8.37,0,8.37,6.81a10,10,0,0,1-1.36,4.68q-3.9,6.62-7.4,13.62a49.15,49.15,0,0,0-2.33,5.07,25,25,0,0,0-1.76,6.81q0,3.31,2.73,3.31a7.93,7.93,0,0,0,2.73-.58,92.52,92.52,0,0,0,13-8L381,198.7c1.69-1.29,2.92-1.95,3.7-1.95a.86.86,0,0,1,1,1q0,.59-1.65,2a9.27,9.27,0,0,1-1.85,1.46q-35.64,28.82-43.22,31a15,15,0,0,1-3.9.59q-6,0-7-7.21A21.71,21.71,0,0,1,329.87,218.07Zm-16.65-6.71q3.12-.59,15.39-8.18c6.48-4.28,10.32-6.43,11.48-6.43,1-.25,1.56-.77,1.56-1.55,0-1.56-.91-2.34-2.72-2.34a11.52,11.52,0,0,0-3.9.78A49.4,49.4,0,0,0,313.22,211.36Z"/><path class="cls-3" d="M380.11,238.82a4.68,4.68,0,0,0-.77-.56,11.85,11.85,0,0,0-1.35-.7,10.53,10.53,0,0,0-1.72-.6,7.53,7.53,0,0,0-1.89-.24,4.35,4.35,0,0,0-2.54.61,2,2,0,0,0-.85,1.78,1.79,1.79,0,0,0,.54,1.37,4.36,4.36,0,0,0,1.62.87c.72.24,1.62.49,2.7.77a18.85,18.85,0,0,1,3.64,1.24,6,6,0,0,1,2.37,1.91,5.41,5.41,0,0,1,.83,3.15,6.08,6.08,0,0,1-.63,2.87,5.34,5.34,0,0,1-1.73,2,7.39,7.39,0,0,1-2.52,1.11,12.74,12.74,0,0,1-3,.34,15.61,15.61,0,0,1-3.18-.33,16.36,16.36,0,0,1-3.05-.94,15.11,15.11,0,0,1-2.71-1.49l1.83-3.57a5.9,5.9,0,0,0,1,.71,12.93,12.93,0,0,0,1.68.87,14,14,0,0,0,2.16.73,9.51,9.51,0,0,0,2.37.3,4.69,4.69,0,0,0,2.55-.55,1.79,1.79,0,0,0,.84-1.61,1.85,1.85,0,0,0-.68-1.51,5.89,5.89,0,0,0-1.9-1c-.82-.27-1.79-.55-2.91-.85a16.65,16.65,0,0,1-3.38-1.29,5.23,5.23,0,0,1-2-1.77,4.91,4.91,0,0,1-.67-2.68,6.18,6.18,0,0,1,1.05-3.66,6.61,6.61,0,0,1,2.82-2.24,9.8,9.8,0,0,1,3.93-.76,11.74,11.74,0,0,1,2.83.33,14,14,0,0,1,2.51.87,14.79,14.79,0,0,1,2.1,1.17Z"/><path class="cls-3" d="M400.9,254.69a9.72,9.72,0,0,1-4.23-.9,10.23,10.23,0,0,1-3.27-2.44,11.33,11.33,0,0,1-2.13-3.48,10.94,10.94,0,0,1-.75-4,10.62,10.62,0,0,1,.8-4.07,11.5,11.5,0,0,1,2.19-3.45,10.32,10.32,0,0,1,3.31-2.4,9.84,9.84,0,0,1,4.17-.88,9.5,9.5,0,0,1,4.22.93,10.11,10.11,0,0,1,3.25,2.49,11.65,11.65,0,0,1,2.09,3.48,11.05,11.05,0,0,1-2.19,11.45,10.18,10.18,0,0,1-3.3,2.38A9.91,9.91,0,0,1,400.9,254.69Zm-6.18-10.8a8.57,8.57,0,0,0,.42,2.67,7.35,7.35,0,0,0,1.22,2.3,5.79,5.79,0,0,0,1.95,1.59,5.71,5.71,0,0,0,2.62.58,5.54,5.54,0,0,0,2.67-.61,6.13,6.13,0,0,0,1.94-1.64,7,7,0,0,0,1.18-2.31,8.88,8.88,0,0,0,.39-2.58,8.51,8.51,0,0,0-.42-2.66,7.18,7.18,0,0,0-1.23-2.28,6,6,0,0,0-1.95-1.59,5.63,5.63,0,0,0-2.61-.58,5.48,5.48,0,0,0-2.62.61,6.13,6.13,0,0,0-1.95,1.62,7.21,7.21,0,0,0-1.2,2.28A8.61,8.61,0,0,0,394.72,243.89Z"/><path class="cls-3" d="M421.49,233.24l5.25,10,5.34-10h4.47l-7.74,13.86v7.44H424.7V247L417,233.24Z"/><text class="cls-4" transform="translate(6.19 339.66)">Y<tspan class="cls-5" x="42.03" y="0">ANIN </tspan><tspan class="cls-6" x="238.78" y="0">D</tspan><tspan class="cls-7" x="285.74" y="0">Á</tspan><tspan class="cls-8" x="328.56" y="0">VIL</tspan><tspan class="cls-9" x="443.64" y="0">A</tspan></text><text class="cls-10" transform="translate(32.02 379.25)">DISEÑADOR<tspan class="cls-11" x="229.07" y="0">A</tspan><tspan class="cls-12" x="254.6" y="0" xml:space="preserve"> GRÁFI</tspan><tspan class="cls-13" x="386.27" y="0">C</tspan><tspan class="cls-14" x="412.7" y="0">A</tspan></text></svg>