<svg id="Capa_1" data-name="Capa 1" xmlns="http://www.w3.org/2000/svg" viewBox="0 0 900 900"><defs><style>.cls-1{fill:#fff;}</style></defs><path class="cls-1" d="M450,260.22c65.53,0,73.29.24,99.17,1.36,23.93,1,36.92,4.79,45.57,8A76.67,76.67,0,0,1,623,286.86a71.43,71.43,0,0,1,18.36,26.62c3.36,8.15,7.35,20.41,8.45,43,1.18,24.41,1.43,31.73,1.43,93.55s-.25,69.13-1.43,93.53c-1.1,22.57-5.09,34.83-8.45,43A71.47,71.47,0,0,1,623,613.14a76.67,76.67,0,0,1-28.22,17.32c-8.65,3.18-21.64,6.95-45.57,8-25.87,1.11-33.64,1.35-99.17,1.35s-73.3-.24-99.17-1.35c-23.93-1-36.92-4.79-45.57-8A76.59,76.59,0,0,1,277,613.14a71.47,71.47,0,0,1-18.36-26.61c-3.36-8.16-7.35-20.42-8.45-43-1.18-24.4-1.43-31.73-1.43-93.53s.25-69.14,1.43-93.55c1.1-22.57,5.09-34.83,8.45-43A71.43,71.43,0,0,1,277,286.86a76.59,76.59,0,0,1,28.22-17.32c8.65-3.17,21.64-6.94,45.57-8,25.88-1.12,33.63-1.36,99.17-1.36m0-41.71c-66.65,0-75,.27-101.19,1.39s-44,5-59.57,10.77a121,121,0,0,0-43.46,26.69,112.91,112.91,0,0,0-28.31,41c-6.07,14.72-10.22,31.55-11.41,56.18s-1.49,32.58-1.49,95.46.3,70.75,1.49,95.44,5.34,41.47,11.41,56.18a112.91,112.91,0,0,0,28.31,41,121,121,0,0,0,43.46,26.7c15.61,5.72,33.45,9.64,59.57,10.76s34.54,1.39,101.19,1.39,75-.27,101.19-1.39,43.95-5,59.57-10.76a121.1,121.1,0,0,0,43.46-26.7,112.91,112.91,0,0,0,28.31-41c6.07-14.71,10.22-31.54,11.4-56.18s1.5-32.58,1.5-95.44-.3-70.76-1.5-95.46-5.33-41.46-11.4-56.18a112.91,112.91,0,0,0-28.31-41,121.07,121.07,0,0,0-43.46-26.69c-15.62-5.73-33.45-9.64-59.57-10.77s-34.54-1.39-101.19-1.39"/><path class="cls-1" d="M450,331.13c-69.6,0-126,53.21-126,118.87S380.4,568.88,450,568.88,576,515.66,576,450,519.6,331.13,450,331.13m0,196c-45.18,0-81.81-34.55-81.81-77.16s36.63-77.16,81.81-77.16,81.8,34.54,81.8,77.16-36.62,77.16-81.8,77.16"/><path class="cls-1" d="M610.45,326.43c0,15.34-13.18,27.78-29.45,27.78s-29.45-12.44-29.45-27.78,13.19-27.78,29.45-27.78,29.45,12.44,29.45,27.78"/></svg>