<svg id="Capa_1" data-name="Capa 1" xmlns="http://www.w3.org/2000/svg" viewBox="0 0 500 500"><defs><style>.cls-1{fill:#6667ab;}</style></defs><path class="cls-1" d="M22,318.4q-9.12-.07-9.57-7.21c.31-4.95,3.43-11.05,9.2-19.26A232.31,232.31,0,0,1,42,267a6.18,6.18,0,0,1,2.68-2.11c1.21-.32,1.83.06,1.86,1.13s-.7,2.27-2.18,4A275.92,275.92,0,0,0,27,292.33c-5.68,8.15-8.58,13.79-8.56,17.85,0,2.66,1.07,4,3.17,4.17a49,49,0,0,0,5,.07c6.21-.34,14.65-2.62,25.24-7.62a93.37,93.37,0,0,0,33.21-27.11c7.62-9.64,11.87-20.07,12.74-30.67-.53-15.6-11.67-24.64-32.53-23.36-5.36.31-10.52.44-15.49.46-5.89-.3-8.82-2.17-8.91-6.1-.12-5.48,5.08-14.45,15.8-27.67,15.64-19.76,32.92-39,52.28-55.62a75,75,0,0,1,24.37-15.34c8.72-2.16,13.24.4,13.43,7.12a31.75,31.75,0,0,1-1.45,9,71.85,71.85,0,0,1-16.42,26.64,6.44,6.44,0,0,1-2.6,1.81c-1.43.27-2.17-.19-2.21-1.38a10.88,10.88,0,0,1,1.12-2.42c10.81-13.17,16.24-23.52,16-30.9-.13-4.21-3.36-5.37-9.62-3.2-6.73,2.32-16.22,9-28.19,20-18.28,16.68-34.51,35.41-49.12,54.24-5.8,7.26-8.63,12.36-8.55,15.57.11,3.76,4.88,4.63,14.6,3.55a88.27,88.27,0,0,1,18.94.38c15,2.85,23,12.16,23.43,25.52.39,10.81-4.3,22.74-14,34.68C80,292.57,71.27,300.22,62.55,305.39a101.51,101.51,0,0,1-17.06,8.05c-7.86,3-13.65,4.46-17.31,4.65Z"/><path class="cls-1" d="M120.85,273.4q-8.47.9-10.42-7.47c-.1-.64-.2-1.29-.31-1.93a18.14,18.14,0,0,1,1.19-6.61,80.6,80.6,0,0,1,21-32.54c2.92-3.13,6.06-5,9.4-5.6q4.06-.7,5.16,3.65-.15,3.21-2.78,3.61-2.4-.15-4.8-.27c-5.31,3.68-11.42,11.82-18.28,23.87-3.58,6.3-5.3,11-5.19,14.34.1,2.83,2,4,5.57,3.58,5.82-.69,15-5,27.62-13.27,20.09-14.6,35-26.5,44.38-35.27a4.88,4.88,0,0,1,2.64-1.34c.81-.06,1.22.28,1.23,1s-.62,1.82-1.88,3.22q-10.27,8.65-17.81,15.41C148.42,261.11,129.84,272.44,120.85,273.4Z"/><path class="cls-1" d="M175.22,272.08c-1.91.11-2.88-.74-2.92-2.57a16,16,0,0,1,2-7A392,392,0,0,1,199.08,212c2.68-4.7,4.67-7.11,6-7.2,1.46-.11,2.2.5,2.22,1.81,0,1.13-1.81,5.11-5.43,11.92-2.84,4.7-7,13.25-12.37,25.5a118.7,118.7,0,0,1,14-15.48c13.39-11.35,24.35-17.11,32.64-17.28,1.46,0,2.19.53,2.2,1.67s-.73,1.82-2.19,2c-7,1.28-13.77,4.57-20.34,9.79a121,121,0,0,0-21.45,20.9c-2,2.34-7.6,10.76-16.51,24.86A3.15,3.15,0,0,1,175.22,272.08Z"/><path class="cls-1" d="M234.92,269.71a7.4,7.4,0,0,1-3.35-.81q-3.84-2.5-3.89-7.9a37.85,37.85,0,0,1,3.5-15.72c8.08-20.85,16.22-31.34,24.18-31.26a11.24,11.24,0,0,1,3.66.61c4.05,2.33,6.06,6.19,6,11.5-.08.85-.17,1.7-.25,2.56a69.45,69.45,0,0,0,8.24.77c13.08.4,24.16-2.64,33.33-9.15a4.79,4.79,0,0,1,2.2-.66c.64.06,1,.46.94,1.2A6.88,6.88,0,0,1,309,223c-8.71,8-21.88,11.6-39.62,11.16-1.61,0-3.23-.08-4.84-.1q-.73,0-3.17,5.64-8,17.85-20.46,27.34Q237.32,269.68,234.92,269.71Zm1.65-6c4.16,0,10.5-7.72,19.23-22.88a60.63,60.63,0,0,0,2.92-7.39c-5-2.33-7.75-5.84-8.23-10.6a81.24,81.24,0,0,0-15.4,32,23.41,23.41,0,0,0-.93,6.28C234.17,262.88,235,263.72,236.57,263.71Zm22.65-36.54c1,0,1.46-.55,1.46-1.69,0-4.17-1.35-6.29-4.11-6.32q-2.19,0-2.19,2v.29Q256.56,227.15,259.22,227.17Z"/><path class="cls-1" d="M290.66,288.59q-6.89-.13-6.77-10.6a42.36,42.36,0,0,1,.54-5.93,108.93,108.93,0,0,1,11.49-34c17.54-35.89,40.72-65.55,68.5-83.51,10.07-6.55,18.49-8.16,25.26-5.84,3.92,1.72,5.81,4.25,5.69,7.51-1.4,8.08-8.18,16.45-20.55,27.29a212,212,0,0,1-34.76,25c-12.45,7.15-21.92,12.28-28.41,14.47-2.3,1.84-5,6.08-8,12.78a157.08,157.08,0,0,0-12,30.58,45.79,45.79,0,0,0-1.57,10.1q-.08,5.93,3,6c2.38.07,6-1.81,10.81-5.55,43.71-37.34,66.64-49.44,68-49.46.62.29.93.68.91,1.19,0,.69-.77,1.66-2.24,3-20.81,13.53-41.75,29.94-62.41,47.72C300.92,285.53,295.1,288.69,290.66,288.59Zm24.28-72.8c6.18-1.77,14.51-6.18,25-12.56a229.56,229.56,0,0,0,30.5-22.41c9.82-8.46,16.4-15.37,19.81-21.8a9.47,9.47,0,0,0,.81-2.71c.06-1.48-.11-2.38-.5-2.69a4.5,4.5,0,0,0-1.29-.75l-.7-.27c-5.24-.65-10.82.68-16.74,4.21-12.31,6.91-23.65,16.71-33.86,28.87A181.05,181.05,0,0,0,314.94,215.79Z"/><path class="cls-1" d="M354.19,291c-4.56-.24-6.76-3.63-6.57-10.2a38.46,38.46,0,0,1,.64-5.55,92.33,92.33,0,0,1,11.89-31c17.82-31.95,40.78-55.8,67-65.61,9.5-3.58,17.28-2.85,23.54.77,3.63,2.42,5.39,5,5.32,7.66-1.2,6.35-7.34,11.53-19,18.46a224.9,224.9,0,0,1-33.35,16.39c-12.1,4.77-21.44,8.48-27.83,9.82-2.27,1.46-4.93,5.09-8,11a129.81,129.81,0,0,0-12.29,27.53,39.93,39.93,0,0,0-1.71,9.36q-.16,5.53,2.9,5.73c2.37.16,6-1.45,10.81-4.67,43.81-32.09,65.51-38.15,66.86-38.29.6.33.9.71.89,1.14s-.74,1.3-2.16,2.22c-20,9-40.72,22-61.41,37.33C364.44,288.5,358.6,291.26,354.19,291Zm24.94-65.49c6.06-.94,14.25-4,24.46-8.31a243.19,243.19,0,0,0,29.28-14.8c9.29-5.44,15.34-9.72,18.44-14.27a5.93,5.93,0,0,0,.73-2.06,3.43,3.43,0,0,0-.49-2.37,6.47,6.47,0,0,0-1.2-.94l-.65-.4a23.23,23.23,0,0,0-15.57-.24c-11.54,3.3-22.4,9.87-32.32,19.18A125.61,125.61,0,0,0,379.13,225.52Z"/><path class="cls-1" d="M408.15,325h-.94c-1.41,0-2.09-.63-2-1.89a6.8,6.8,0,0,1,1.5-2.33,7.26,7.26,0,0,1,5-1.79q3,.06,3,2.34c-.06,1.52-1.27,2.44-3.63,2.74A10.1,10.1,0,0,0,408.15,325Zm18-37.91-.47-.06c-.77-.09-1.15-.59-1.12-1.48.06-1.48.93-4.22,2.62-8.1,14.29-32.35,31.08-59.65,48.4-75.67,4.56-4.41,7.82-5.2,10-3.39,1.35,1.14,2,2.22,2,3.23,0,.79-.6,1.5-1.83,2.21-22.38,14.62-43.07,46.93-57.67,81.29C427.73,286.36,427.08,287,426.15,287.05Z"/></svg>